{
  "accessors": [
    {
      "bufferView": 2,
      "componentType": 5126,
      "count": 65532,
      "max": [
        178.26873779296875,
        1133.818359375,
        95.63658142089844
      ],
      "min": [
        -178.3026123046875,
        152.4281005859375,
        -171.82736206054688
      ],
      "type": "VEC3"
    },
    {
      "bufferView": 2,
      "byteOffset": 786384,
      "componentType": 5126,
      "count": 65532,
      "max": [
        0.9999998807907104,
        0.9999971985816956,
        0.9999977946281433
      ],
      "min": [
        -0.9999998211860657,
        -0.999976634979248,
        -0.9999977350234985
      ],
      "type": "VEC3"
    },
    {
      "bufferView": 3,
      "componentType": 5126,
      "count": 65532,
      "max": [
        0.9999991655349731,
        0.9999985098838806,
        0.9999988675117493,
        1.0
      ],
      "min": [
        -0.9999964833259583,
        -0.9999995231628418,
        -0.9999633431434631,
        -1.0
      ],
      "type": "VEC4"
    },
    {
      "bufferView": 1,
      "componentType": 5126,
      "count": 65532,
      "max": [
        0.999500036239624,
        0.9994999766349792
      ],
      "min": [
        0.0005000000237487257,
        0.0075865983963012695
      ],
      "type": "VEC2"
    },
    {
      "bufferView": 1,
      "byteOffset": 524256,
      "componentType": 5126,
      "count": 65532,
      "max": [
        0.999500036239624,
        0.9994999766349792
      ],
      "min": [
        0.0005000000237487257,
        0.0075865983963012695
      ],
      "type": "VEC2"
    },
    {
      "bufferView": 1,
      "byteOffset": 1048512,
      "componentType": 5126,
      "count": 65532,
      "max": [
        0.999500036239624,
        0.9994999766349792
      ],
      "min": [
        0.0005000000237487257,
        0.0075865983963012695
      ],
      "type": "VEC2"
    },
    {
      "bufferView": 1,
      "byteOffset": 1572768,
      "componentType": 5126,
      "count": 65532,
      "max": [
        0.999500036239624,
        0.9994999766349792
      ],
      "min": [
        0.0005000000237487257,
        0.0075865983963012695
      ],
      "type": "VEC2"
    },
    {
      "bufferView": 0,
      "componentType": 5125,
      "count": 361149,
      "type": "SCALAR"
    },
    {
      "bufferView": 2,
      "byteOffset": 1572768,
      "componentType": 5126,
      "count": 3816,
      "max": [
        138.4381103515625,
        1081.7547607421875,
        94.5804672241211
      ],
      "min": [
        6.983118057250977,
        152.34609985351563,
        -119.72932434082031
      ],
      "type": "VEC3"
    },
    {
      "bufferView": 2,
      "byteOffset": 1618560,
      "componentType": 5126,
      "count": 3816,
      "max": [
        0.999854326248169,
        0.9988607168197632,
        0.9999322295188904
      ],
      "min": [
        -0.999950647354126,
        -0.9999165534973145,
        -0.9997018575668335
      ],
      "type": "VEC3"
    },
    {
      "bufferView": 3,
      "byteOffset": 1048512,
      "componentType": 5126,
      "count": 3816,
      "max": [
        0.9999902248382568,
        0.9913354516029358,
        0.9999310970306396,
        1.0
      ],
      "min": [
        -0.9997753500938416,
        -0.9999303817749023,
        -0.9999364018440247,
        -1.0
      ],
      "type": "VEC4"
    },
    {
      "bufferView": 1,
      "byteOffset": 2097024,
      "componentType": 5126,
      "count": 3816,
      "max": [
        0.9421302080154419,
        0.9628985524177551
      ],
      "min": [
        0.005728785879909992,
        0.0789182186126709
      ],
      "type": "VEC2"
    },
    {
      "bufferView": 1,
      "byteOffset": 2127552,
      "componentType": 5126,
      "count": 3816,
      "max": [
        0.9421302080154419,
        0.9628985524177551
      ],
      "min": [
        0.005728785879909992,
        0.0789182186126709
      ],
      "type": "VEC2"
    },
    {
      "bufferView": 1,
      "byteOffset": 2158080,
      "componentType": 5126,
      "count": 3816,
      "max": [
        0.9421302080154419,
        0.9628985524177551
      ],
      "min": [
        0.005728785879909992,
        0.0789182186126709
      ],
      "type": "VEC2"
    },
    {
      "bufferView": 1,
      "byteOffset": 2188608,
      "componentType": 5126,
      "count": 3816,
      "max": [
        0.9421302080154419,
        0.9628985524177551
      ],
      "min": [
        0.005728785879909992,
        0.0789182186126709
      ],
      "type": "VEC2"
    },
    {
      "bufferView": 0,
      "byteOffset": 1444596,
      "componentType": 5125,
      "count": 19875,
      "type": "SCALAR"
    }
  ],
  "asset": {
    "extras": {
      "author": "ARize (https://sketchfab.com/ARizegroup)",
      "license": "CC-BY-4.0 (http://creativecommons.org/licenses/by/4.0/)",
      "source": "https://sketchfab.com/3d-models/the-pants-8939b47916ab4b2486a3fa2613eac54c",
      "title": "The Pants"
    },
    "generator": "Sketchfab-12.68.0",
    "version": "2.0"
  },
  "bufferViews": [
    {
      "buffer": 0,
      "byteLength": 1524096,
      "name": "floatBufferViews",
      "target": 34963
    },
    {
      "buffer": 0,
      "byteLength": 2219136,
      "byteOffset": 1524096,
      "byteStride": 8,
      "name": "floatBufferViews",
      "target": 34962
    },
    {
      "buffer": 0,
      "byteLength": 1664352,
      "byteOffset": 3743232,
      "byteStride": 12,
      "name": "floatBufferViews",
      "target": 34962
    },
    {
      "buffer": 0,
      "byteLength": 1109568,
      "byteOffset": 5407584,
      "byteStride": 16,
      "name": "floatBufferViews",
      "target": 34962
    }
  ],
  "buffers": [
    {
      "byteLength": 6517152,
      "uri": "scene.bin"
    }
  ],
  "images": [
    {
      "uri": "textures/SSC_Grey_Sweatpants_baseColor.jpeg"
    },
    {
      "uri": "textures/SSC_Grey_Sweatpants_metallicRoughness.png"
    },
    {
      "uri": "textures/SSC_Grey_Sweatpants_normal.png"
    }
  ],
  "materials": [
    {
      "doubleSided": true,
      "name": "SSC_Grey_Sweatpants",
      "normalTexture": {
        "index": 2,
        "texCoord": 2
      },
      "pbrMetallicRoughness": {
        "baseColorTexture": {
          "index": 0
        },
        "metallicRoughnessTexture": {
          "index": 1,
          "texCoord": 1
        }
      }
    }
  ],
  "meshes": [
    {
      "name": "Object_0",
      "primitives": [
        {
          "attributes": {
            "NORMAL": 1,
            "POSITION": 0,
            "TANGENT": 2,
            "TEXCOORD_0": 3,
            "TEXCOORD_1": 4,
            "TEXCOORD_2": 5,
            "TEXCOORD_3": 6
          },
          "indices": 7,
          "material": 0,
          "mode": 4
        }
      ]
    },
    {
      "name": "Object_1",
      "primitives": [
        {
          "attributes": {
            "NORMAL": 9,
            "POSITION": 8,
            "TANGENT": 10,
            "TEXCOORD_0": 11,
            "TEXCOORD_1": 12,
            "TEXCOORD_2": 13,
            "TEXCOORD_3": 14
          },
          "indices": 15,
          "material": 0,
          "mode": 4
        }
      ]
    }
  ],
  "nodes": [
    {
      "children": [
        1
      ],
      "matrix": [
        1.0,
        0.0,
        0.0,
        0.0,
        0.0,
        2.220446049250313e-16,
        -1.0,
        0.0,
        0.0,
        1.0,
        2.220446049250313e-16,
        0.0,
        0.0,
        0.0,
        0.0,
        1.0
      ],
      "name": "Sketchfab_model"
    },
    {
      "children": [
        2
      ],
      "name": "root"
    },
    {
      "children": [
        3
      ],
      "matrix": [
        1.0,
        0.0,
        0.0,
        0.0,
        0.0,
        2.220446049250313e-16,
        1.0,
        0.0,
        0.0,
        -1.0,
        2.220446049250313e-16,
        0.0,
        0.0,
        0.0,
        0.0,
        1.0
      ],
      "name": "GLTF_SceneRootNode"
    },
    {
      "children": [
        4,
        5
      ],
      "matrix": [
        0.0010000000474974513,
        0.0,
        0.0,
        0.0,
        0.0,
        0.0010000000474974513,
        0.0,
        0.0,
        0.0,
        0.0,
        0.0010000000474974513,
        0.0,
        0.0,
        -0.1557188630104065,
        0.0,
        1.0
      ],
      "name": "SSC_Grey_Sweatpants_2"
    },
    {
      "mesh": 0,
      "name": "Object_4"
    },
    {
      "mesh": 1,
      "name": "Object_5"
    }
  ],
  "samplers": [
    {
      "magFilter": 9729,
      "minFilter": 9987,
      "wrapS": 10497,
      "wrapT": 10497
    }
  ],
  "scene": 0,
  "scenes": [
    {
      "name": "Sketchfab_Scene",
      "nodes": [
        0
      ]
    }
  ],
  "textures": [
    {
      "sampler": 0,
      "source": 0
    },
    {
      "sampler": 0,
      "source": 1
    },
    {
      "sampler": 0,
      "source": 2
    }
  ]
}
