{
  "accessors": [
    {
      "bufferView": 2,
      "componentType": 5126,
      "count": 1991,
      "max": [
        1.122166633605957,
        4.708714485168457,
        0.5950742959976196
      ],
      "min": [
        -1.122166633605957,
        0.4000970125198364,
        -0.7390598058700562
      ],
      "type": "VEC3"
    },
    {
      "bufferView": 2,
      "byteOffset": 23892,
      "componentType": 5126,
      "count": 1991,
      "max": [
        0.9998657703399658,
        0.9397882223129272,
        0.9999765753746033
      ],
      "min": [
        -0.9998657703399658,
        -0.9999995827674866,
        -0.9994736313819885
      ],
      "type": "VEC3"
    },
    {
      "bufferView": 3,
      "componentType": 5126,
      "count": 1991,
      "max": [
        0.9999997615814209,
        0.9814639687538147,
        0.9991010427474976,
        1.0
      ],
      "min": [
        -0.991943895816803,
        -0.9988893866539001,
        -0.9995430111885071,
        -1.0
      ],
      "type": "VEC4"
    },
    {
      "bufferView": 1,
      "componentType": 5126,
      "count": 1991,
      "max": [
        1.0067476034164429,
        0.9898808598518372
      ],
      "min": [
        -0.0016477108001708984,
        0.007550835609436035
      ],
      "type": "VEC2"
    },
    {
      "bufferView": 0,
      "componentType": 5125,
      "count": 10542,
      "type": "SCALAR"
    }
  ],
  "asset": {
    "extras": {
      "author": "darrendillard1 (https://sketchfab.com/darrendillard1)",
      "license": "CC-BY-4.0 (http://creativecommons.org/licenses/by/4.0/)",
      "source": "https://sketchfab.com/3d-models/dillard-darren-joggers-1f6f7318f9364456b8d58c1eaf71762b",
      "title": "Dillard, Darren Joggers"
    },
    "generator": "Sketchfab-12.68.0",
    "version": "2.0"
  },
  "bufferViews": [
    {
      "buffer": 0,
      "byteLength": 42168,
      "name": "floatBufferViews",
      "target": 34963
    },
    {
      "buffer": 0,
      "byteLength": 15928,
      "byteOffset": 42168,
      "byteStride": 8,
      "name": "floatBufferViews",
      "target": 34962
    },
    {
      "buffer": 0,
      "byteLength": 47784,
      "byteOffset": 58096,
      "byteStride": 12,
      "name": "floatBufferViews",
      "target": 34962
    },
    {
      "buffer": 0,
      "byteLength": 31856,
      "byteOffset": 105880,
      "byteStride": 16,
      "name": "floatBufferViews",
      "target": 34962
    }
  ],
  "buffers": [
    {
      "byteLength": 137736,
      "uri": "scene.bin"
    }
  ],
  "images": [
    {
      "uri": "textures/lambert1_baseColor.png"
    },
    {
      "uri": "textures/lambert1_metallicRoughness.png"
    },
    {
      "uri": "textures/lambert1_normal.png"
    }
  ],
  "materials": [
    {
      "doubleSided": true,
      "name": "lambert1",
      "normalTexture": {
        "index": 2
      },
      "occlusionTexture": {
        "index": 1
      },
      "pbrMetallicRoughness": {
        "baseColorTexture": {
          "index": 0
        },
        "metallicFactor": 0.0,
        "metallicRoughnessTexture": {
          "index": 1
        },
        "roughnessFactor": 0.6
      }
    }
  ],
  "meshes": [
    {
      "name": "SM_PantsLo1:Joggers_Lo_lambert1_0",
      "primitives": [
        {
          "attributes": {
            "NORMAL": 1,
            "POSITION": 0,
            "TANGENT": 2,
            "TEXCOORD_0": 3
          },
          "indices": 4,
          "material": 0,
          "mode": 4
        }
      ]
    }
  ],
  "nodes": [
    {
      "children": [
        1
      ],
      "matrix": [
        1.0,
        0.0,
        0.0,
        0.0,
        0.0,
        2.220446049250313e-16,
        -1.0,
        0.0,
        0.0,
        1.0,
        2.220446049250313e-16,
        0.0,
        0.0,
        0.0,
        0.0,
        1.0
      ],
      "name": "Sketchfab_model"
    },
    {
      "children": [
        2
      ],
      "matrix": [
        1.0,
        0.0,
        0.0,
        0.0,
        0.0,
        0.0,
        1.0,
        0.0,
        0.0,
        -1.0,
        0.0,
        0.0,
        0.0,
        0.0,
        0.0,
        1.0
      ],
      "name": "Joggers_Lo.fbx"
    },
    {
      "children": [
        3
      ],
      "name": "RootNode"
    },
    {
      "children": [
        4
      ],
      "name": "SM_PantsLo1:Joggers_Lo"
    },
    {
      "mesh": 0,
      "name": "SM_PantsLo1:Joggers_Lo_lambert1_0"
    }
  ],
  "samplers": [
    {
      "magFilter": 9729,
      "minFilter": 9987,
      "wrapS": 10497,
      "wrapT": 10497
    }
  ],
  "scene": 0,
  "scenes": [
    {
      "name": "Sketchfab_Scene",
      "nodes": [
        0
      ]
    }
  ],
  "textures": [
    {
      "sampler": 0,
      "source": 0
    },
    {
      "sampler": 0,
      "source": 1
    },
    {
      "sampler": 0,
      "source": 2
    }
  ]
}
