{
  "accessors": [
    {
      "bufferView": 2,
      "componentType": 5126,
      "count": 4410,
      "max": [
        4.770222187042236,
        4.927450180053711,
        15.925331115722656
      ],
      "min": [
        -4.091568946838379,
        -4.111648082733154,
        0.0
      ],
      "type": "VEC3"
    },
    {
      "bufferView": 2,
      "byteOffset": 52920,
      "componentType": 5126,
      "count": 4410,
      "max": [
        0.9998893737792969,
        0.9999877214431763,
        0.9999523162841797
      ],
      "min": [
        -0.9999910593032837,
        -0.9999954700469971,
        -0.9999732971191406
      ],
      "type": "VEC3"
    },
    {
      "bufferView": 1,
      "componentType": 5126,
      "count": 4410,
      "max": [
        1.0,
        1.0
      ],
      "min": [
        0.0,
        0.0
      ],
      "type": "VEC2"
    },
    {
      "bufferView": 0,
      "componentType": 5125,
      "count": 22080,
      "type": "SCALAR"
    },
    {
      "bufferView": 2,
      "byteOffset": 105840,
      "componentType": 5126,
      "count": 7100,
      "max": [
        5.45831823348999,
        5.576820373535156,
        16.650955200195313
      ],
      "min": [
        -4.668656349182129,
        -4.622133731842041,
        3.2328832149505615
      ],
      "type": "VEC3"
    },
    {
      "bufferView": 2,
      "byteOffset": 191040,
      "componentType": 5126,
      "count": 7100,
      "max": [
        0.9904401898384094,
        0.9904414415359497,
        0.9953644275665283
      ],
      "min": [
        -0.9904409050941467,
        -0.9904414415359497,
        -0.9951451420783997
      ],
      "type": "VEC3"
    },
    {
      "bufferView": 1,
      "byteOffset": 35280,
      "componentType": 5126,
      "count": 7100,
      "max": [
        0.75,
        1.0
      ],
      "min": [
        0.25,
        0.0
      ],
      "type": "VEC2"
    },
    {
      "bufferView": 0,
      "byteOffset": 88320,
      "componentType": 5125,
      "count": 10650,
      "type": "SCALAR"
    }
  ],
  "asset": {
    "extras": {
      "author": "TanishaBerry (https://sketchfab.com/TanishaBerry)",
      "license": "CC-BY-4.0 (http://creativecommons.org/licenses/by/4.0/)",
      "source": "https://sketchfab.com/3d-models/tree-b8e30834ed2e4fd3a12fa24075bbc914",
      "title": "Tree"
    },
    "generator": "Sketchfab-12.66.0",
    "version": "2.0"
  },
  "bufferViews": [
    {
      "buffer": 0,
      "byteLength": 130920,
      "name": "floatBufferViews",
      "target": 34963
    },
    {
      "buffer": 0,
      "byteLength": 92080,
      "byteOffset": 130920,
      "byteStride": 8,
      "name": "floatBufferViews",
      "target": 34962
    },
    {
      "buffer": 0,
      "byteLength": 276240,
      "byteOffset": 223000,
      "byteStride": 12,
      "name": "floatBufferViews",
      "target": 34962
    }
  ],
  "buffers": [
    {
      "byteLength": 499240,
      "uri": "scene.bin"
    }
  ],
  "images": [
    {
      "uri": "textures/Leaves_baseColor.png"
    }
  ],
  "materials": [
    {
      "doubleSided": true,
      "name": "Base",
      "pbrMetallicRoughness": {
        "baseColorFactor": [
          0.08805174037017907,
          0.05998330627417456,
          0.05998330627417456,
          1.0
        ],
        "metallicFactor": 0.0
      }
    },
    {
      "alphaMode": "BLEND",
      "doubleSided": true,
      "name": "Leaves",
      "pbrMetallicRoughness": {
        "baseColorTexture": {
          "index": 0
        },
        "metallicFactor": 0.0
      }
    }
  ],
  "meshes": [
    {
      "name": "tree_Base_0",
      "primitives": [
        {
          "attributes": {
            "NORMAL": 1,
            "POSITION": 0,
            "TEXCOORD_0": 2
          },
          "indices": 3,
          "material": 0,
          "mode": 4
        }
      ]
    },
    {
      "name": "leaves_Leaves_0",
      "primitives": [
        {
          "attributes": {
            "NORMAL": 5,
            "POSITION": 4,
            "TEXCOORD_0": 6
          },
          "indices": 7,
          "material": 1,
          "mode": 4
        }
      ]
    }
  ],
  "nodes": [
    {
      "children": [
        1
      ],
      "matrix": [
        1.0,
        0.0,
        0.0,
        0.0,
        0.0,
        2.220446049250313e-16,
        -1.0,
        0.0,
        0.0,
        1.0,
        2.220446049250313e-16,
        0.0,
        0.0,
        0.0,
        0.0,
        1.0
      ],
      "name": "Sketchfab_model"
    },
    {
      "children": [
        2
      ],
      "matrix": [
        1.0,
        0.0,
        0.0,
        0.0,
        0.0,
        0.0,
        1.0,
        0.0,
        0.0,
        -1.0,
        0.0,
        0.0,
        0.0,
        0.0,
        0.0,
        1.0
      ],
      "name": "0cb47cabf1694497a0318754c3d8ff76.fbx"
    },
    {
      "children": [
        3
      ],
      "name": "RootNode"
    },
    {
      "children": [
        4,
        5
      ],
      "matrix": [
        100.0,
        0.0,
        0.0,
        0.0,
        0.0,
        -1.629206793918314e-05,
        -99.99999999999868,
        0.0,
        0.0,
        99.99999999999868,
        -1.629206793918314e-05,
        0.0,
        0.0,
        0.0,
        0.0,
        1.0
      ],
      "name": "tree"
    },
    {
      "mesh": 0,
      "name": "tree_Base_0"
    },
    {
      "children": [
        6
      ],
      "matrix": [
        1.0,
        0.0,
        0.0,
        0.0,
        0.0,
        1.0,
        -2.646977960169688e-23,
        0.0,
        0.0,
        2.646977960169688e-23,
        1.0,
        0.0,
        0.0,
        0.0,
        0.0,
        1.0
      ],
      "name": "leaves"
    },
    {
      "mesh": 1,
      "name": "leaves_Leaves_0"
    }
  ],
  "samplers": [
    {
      "magFilter": 9729,
      "minFilter": 9987,
      "wrapS": 10497,
      "wrapT": 10497
    }
  ],
  "scene": 0,
  "scenes": [
    {
      "name": "Sketchfab_Scene",
      "nodes": [
        0
      ]
    }
  ],
  "textures": [
    {
      "sampler": 0,
      "source": 0
    }
  ]
}
