{
  "accessors": [
    {
      "bufferView": 1,
      "componentType": 5126,
      "count": 11622,
      "max": [
        133.43101501464844,
        141.909423828125,
        84.14632415771484
      ],
      "min": [
        -133.47097778320313,
        -211.686279296875,
        -54.76346206665039
      ],
      "type": "VEC3"
    },
    {
      "bufferView": 1,
      "byteOffset": 139464,
      "componentType": 5126,
      "count": 11622,
      "max": [
        0.9996516108512878,
        0.9991377592086792,
        0.9999189972877502
      ],
      "min": [
        -0.9999850392341614,
        -0.882016122341156,
        -0.999998152256012
      ],
      "type": "VEC3"
    },
    {
      "bufferView": 0,
      "componentType": 5125,
      "count": 67554,
      "type": "SCALAR"
    }
  ],
  "asset": {
    "extras": {
      "author": "mweisburgh (https://sketchfab.com/mweisburgh)",
      "license": "CC-BY-4.0 (http://creativecommons.org/licenses/by/4.0/)",
      "source": "https://sketchfab.com/3d-models/nycfashion-t-shirt-dress-e42b0ad5a9e744d0907b376257fdc4db",
      "title": "nycfashion T- Shirt Dress"
    },
    "generator": "Sketchfab-12.66.0",
    "version": "2.0"
  },
  "bufferViews": [
    {
      "buffer": 0,
      "byteLength": 270216,
      "name": "floatBufferViews",
      "target": 34963
    },
    {
      "buffer": 0,
      "byteLength": 278928,
      "byteOffset": 270216,
      "byteStride": 12,
      "name": "floatBufferViews",
      "target": 34962
    }
  ],
  "buffers": [
    {
      "byteLength": 549144,
      "uri": "scene.bin"
    }
  ],
  "materials": [
    {
      "doubleSided": true,
      "name": "Scene_-_Root",
      "pbrMetallicRoughness": {
        "metallicFactor": 0.0,
        "roughnessFactor": 0.6
      }
    }
  ],
  "meshes": [
    {
      "name": "Object_0",
      "primitives": [
        {
          "attributes": {
            "NORMAL": 1,
            "POSITION": 0
          },
          "indices": 2,
          "material": 0,
          "mode": 4
        }
      ]
    }
  ],
  "nodes": [
    {
      "children": [
        1
      ],
      "matrix": [
        1.0,
        0.0,
        0.0,
        0.0,
        0.0,
        1.0,
        4.440892098500626e-16,
        0.0,
        0.0,
        -4.440892098500626e-16,
        1.0,
        0.0,
        0.0,
        49.57977294921874,
        20.19697380065919,
        1.0
      ],
      "name": "Sketchfab_model"
    },
    {
      "children": [
        2
      ],
      "name": "T-Shirt Dress.stl.cleaner.materialmerger.gles"
    },
    {
      "mesh": 0,
      "name": "Object_2"
    }
  ],
  "scene": 0,
  "scenes": [
    {
      "name": "Sketchfab_Scene",
      "nodes": [
        0
      ]
    }
  ]
}
