{
  "accessors": [
    {
      "bufferView": 2,
      "componentType": 5126,
      "count": 168,
      "max": [
        100.0,
        100.0,
        249.667724609375
      ],
      "min": [
        0.17351531982421875,
        0.69525146484375,
        1.0340042114257813
      ],
      "type": "VEC3"
    },
    {
      "bufferView": 2,
      "byteOffset": 2016,
      "componentType": 5126,
      "count": 168,
      "max": [
        1.0,
        1.0,
        1.0
      ],
      "min": [
        -1.0,
        -1.0,
        -1.0
      ],
      "type": "VEC3"
    },
    {
      "bufferView": 1,
      "componentType": 5126,
      "count": 168,
      "max": [
        0.875,
        1.0
      ],
      "min": [
        0.125,
        0.0
      ],
      "type": "VEC2"
    },
    {
      "bufferView": 0,
      "componentType": 5125,
      "count": 450,
      "type": "SCALAR"
    },
    {
      "bufferView": 2,
      "byteOffset": 4032,
      "componentType": 5126,
      "count": 130,
      "max": [
        96.01206970214844,
        52.60650634765625,
        215.62875366210938
      ],
      "min": [
        3.987926483154297,
        47.39349365234375,
        210.41574096679688
      ],
      "type": "VEC3"
    },
    {
      "bufferView": 2,
      "byteOffset": 5592,
      "componentType": 5126,
      "count": 130,
      "max": [
        0.6857000589370728,
        0.7278870940208435,
        0.7278861403465271
      ],
      "min": [
        -0.6857000589370728,
        -0.7278869152069092,
        -0.7278861999511719
      ],
      "type": "VEC3"
    },
    {
      "bufferView": 1,
      "byteOffset": 1344,
      "componentType": 5126,
      "count": 130,
      "max": [
        1.0,
        1.0
      ],
      "min": [
        0.0,
        0.01000000536441803
      ],
      "type": "VEC2"
    },
    {
      "bufferView": 0,
      "byteOffset": 1800,
      "componentType": 5125,
      "count": 372,
      "type": "SCALAR"
    },
    {
      "bufferView": 2,
      "byteOffset": 7152,
      "componentType": 5126,
      "count": 28,
      "max": [
        95.06885528564453,
        90.91230773925781,
        89.95637512207031
      ],
      "min": [
        5.040607452392578,
        0.69525146484375,
        9.933250427246094
      ],
      "type": "VEC3"
    },
    {
      "bufferView": 2,
      "byteOffset": 7488,
      "componentType": 5126,
      "count": 28,
      "max": [
        0.0,
        0.0,
        1.0
      ],
      "min": [
        0.0,
        -1.0,
        -1.0
      ],
      "type": "VEC3"
    },
    {
      "bufferView": 1,
      "byteOffset": 2384,
      "componentType": 5126,
      "count": 28,
      "max": [
        1.0057681798934937,
        1.0024564266204834
      ],
      "min": [
        1.481175422668457e-05,
        -0.010448675602674484
      ],
      "type": "VEC2"
    },
    {
      "bufferView": 0,
      "byteOffset": 3288,
      "componentType": 5125,
      "count": 42,
      "type": "SCALAR"
    },
    {
      "bufferView": 2,
      "byteOffset": 7824,
      "componentType": 5126,
      "count": 24,
      "max": [
        100.0,
        -0.17368316650390625,
        124.78254699707031
      ],
      "min": [
        -0.07674407958984375,
        -9.35383129119873,
        0.7997589111328125
      ],
      "type": "VEC3"
    },
    {
      "bufferView": 2,
      "byteOffset": 8112,
      "componentType": 5126,
      "count": 24,
      "max": [
        1.0,
        1.0,
        1.0
      ],
      "min": [
        -1.0,
        -1.0,
        -1.0
      ],
      "type": "VEC3"
    },
    {
      "bufferView": 1,
      "byteOffset": 2608,
      "componentType": 5126,
      "count": 24,
      "max": [
        1.0015783309936523,
        1.0
      ],
      "min": [
        -0.0015783905982971191,
        0.0
      ],
      "type": "VEC2"
    },
    {
      "bufferView": 0,
      "byteOffset": 3456,
      "componentType": 5125,
      "count": 36,
      "type": "SCALAR"
    },
    {
      "bufferView": 2,
      "byteOffset": 8400,
      "componentType": 5126,
      "count": 274,
      "max": [
        91.77200317382813,
        -8.851126670837402,
        71.50595092773438
      ],
      "min": [
        85.7642822265625,
        -19.669435501098633,
        57.395172119140625
      ],
      "type": "VEC3"
    },
    {
      "bufferView": 2,
      "byteOffset": 11688,
      "componentType": 5126,
      "count": 274,
      "max": [
        0.7458791136741638,
        0.6962016820907593,
        0.7178465723991394
      ],
      "min": [
        -0.7458789944648743,
        -0.6962016224861145,
        -0.717846691608429
      ],
      "type": "VEC3"
    },
    {
      "bufferView": 1,
      "byteOffset": 2800,
      "componentType": 5126,
      "count": 274,
      "max": [
        1.0,
        1.0
      ],
      "min": [
        0.0,
        0.0
      ],
      "type": "VEC2"
    },
    {
      "bufferView": 0,
      "byteOffset": 3600,
      "componentType": 5125,
      "count": 780,
      "type": "SCALAR"
    },
    {
      "bufferView": 2,
      "byteOffset": 14976,
      "componentType": 5126,
      "count": 24,
      "max": [
        0.0,
        -0.17368316650390625,
        124.78254699707031
      ],
      "min": [
        -100.07674407958984,
        -9.35383129119873,
        0.7997589111328125
      ],
      "type": "VEC3"
    },
    {
      "bufferView": 2,
      "byteOffset": 15264,
      "componentType": 5126,
      "count": 24,
      "max": [
        1.0,
        1.0,
        1.0
      ],
      "min": [
        -1.0,
        -1.0,
        -1.0
      ],
      "type": "VEC3"
    },
    {
      "bufferView": 1,
      "byteOffset": 4992,
      "componentType": 5126,
      "count": 24,
      "max": [
        0.9946282505989075,
        1.0
      ],
      "min": [
        0.005371749401092529,
        0.0
      ],
      "type": "VEC2"
    },
    {
      "bufferView": 0,
      "byteOffset": 6720,
      "componentType": 5125,
      "count": 36,
      "type": "SCALAR"
    },
    {
      "bufferView": 2,
      "byteOffset": 15552,
      "componentType": 5126,
      "count": 274,
      "max": [
        -85.76423645019531,
        -8.833781242370605,
        71.5235595703125
      ],
      "min": [
        -91.77195739746094,
        -19.652090072631836,
        57.41278076171875
      ],
      "type": "VEC3"
    },
    {
      "bufferView": 2,
      "byteOffset": 18840,
      "componentType": 5126,
      "count": 274,
      "max": [
        0.745879054069519,
        0.6962016224861145,
        0.7178465723991394
      ],
      "min": [
        -0.745879054069519,
        -0.696201503276825,
        -0.7178466320037842
      ],
      "type": "VEC3"
    },
    {
      "bufferView": 1,
      "byteOffset": 5184,
      "componentType": 5126,
      "count": 274,
      "max": [
        1.0,
        1.0
      ],
      "min": [
        0.0,
        0.0
      ],
      "type": "VEC2"
    },
    {
      "bufferView": 0,
      "byteOffset": 6864,
      "componentType": 5125,
      "count": 780,
      "type": "SCALAR"
    }
  ],
  "asset": {
    "extras": {
      "author": "lord_hypersonic (https://sketchfab.com/lord_hypersonic)",
      "license": "CC-BY-4.0 (http://creativecommons.org/licenses/by/4.0/)",
      "source": "https://sketchfab.com/3d-models/cupboard-21b2ef91f49146a18323658f0ac30127",
      "title": "Cupboard"
    },
    "generator": "Sketchfab-12.68.0",
    "version": "2.0"
  },
  "bufferViews": [
    {
      "buffer": 0,
      "byteLength": 9984,
      "name": "floatBufferViews",
      "target": 34963
    },
    {
      "buffer": 0,
      "byteLength": 7376,
      "byteOffset": 9984,
      "byteStride": 8,
      "name": "floatBufferViews",
      "target": 34962
    },
    {
      "buffer": 0,
      "byteLength": 22128,
      "byteOffset": 17360,
      "byteStride": 12,
      "name": "floatBufferViews",
      "target": 34962
    }
  ],
  "buffers": [
    {
      "byteLength": 39488,
      "uri": "scene.bin"
    }
  ],
  "images": [
    {
      "uri": "textures/MarbleMat_baseColor.jpeg"
    },
    {
      "uri": "textures/WoodMat_baseColor.jpeg"
    }
  ],
  "materials": [
    {
      "doubleSided": true,
      "name": "BrownPaint",
      "pbrMetallicRoughness": {
        "baseColorFactor": [
          0.13013699999999997,
          0.05612849999999999,
          0.015208500000000005,
          1.0
        ],
        "metallicFactor": 0.0,
        "roughnessFactor": 0.98459163947756
      }
    },
    {
      "doubleSided": true,
      "name": "MetalicMat",
      "pbrMetallicRoughness": {
        "baseColorFactor": [
          0.7426470323697925,
          0.44050787340299347,
          0.24062794622046565,
          1.0
        ],
        "roughnessFactor": 0.0
      }
    },
    {
      "doubleSided": true,
      "name": "MarbleMat",
      "pbrMetallicRoughness": {
        "baseColorTexture": {
          "index": 0
        },
        "metallicFactor": 0.0,
        "roughnessFactor": 0.8091550572899757
      }
    },
    {
      "doubleSided": true,
      "name": "WoodMat",
      "pbrMetallicRoughness": {
        "baseColorTexture": {
          "index": 1
        },
        "metallicFactor": 0.0
      }
    }
  ],
  "meshes": [
    {
      "name": "Almirah_BrownPaint_0",
      "primitives": [
        {
          "attributes": {
            "NORMAL": 1,
            "POSITION": 0,
            "TEXCOORD_0": 2
          },
          "indices": 3,
          "material": 0,
          "mode": 4
        }
      ]
    },
    {
      "name": "Almirah_MetalicMat_0",
      "primitives": [
        {
          "attributes": {
            "NORMAL": 5,
            "POSITION": 4,
            "TEXCOORD_0": 6
          },
          "indices": 7,
          "material": 1,
          "mode": 4
        }
      ]
    },
    {
      "name": "Almirah_MarbleMat_0",
      "primitives": [
        {
          "attributes": {
            "NORMAL": 9,
            "POSITION": 8,
            "TEXCOORD_0": 10
          },
          "indices": 11,
          "material": 2,
          "mode": 4
        }
      ]
    },
    {
      "name": "LeftGate_WoodMat_0",
      "primitives": [
        {
          "attributes": {
            "NORMAL": 13,
            "POSITION": 12,
            "TEXCOORD_0": 14
          },
          "indices": 15,
          "material": 3,
          "mode": 4
        }
      ]
    },
    {
      "name": "LeftGate_MetalicMat_0",
      "primitives": [
        {
          "attributes": {
            "NORMAL": 17,
            "POSITION": 16,
            "TEXCOORD_0": 18
          },
          "indices": 19,
          "material": 1,
          "mode": 4
        }
      ]
    },
    {
      "name": "RightGate_WoodMat_0",
      "primitives": [
        {
          "attributes": {
            "NORMAL": 21,
            "POSITION": 20,
            "TEXCOORD_0": 22
          },
          "indices": 23,
          "material": 3,
          "mode": 4
        }
      ]
    },
    {
      "name": "RightGate_MetalicMat_0",
      "primitives": [
        {
          "attributes": {
            "NORMAL": 25,
            "POSITION": 24,
            "TEXCOORD_0": 26
          },
          "indices": 27,
          "material": 1,
          "mode": 4
        }
      ]
    }
  ],
  "nodes": [
    {
      "children": [
        1
      ],
      "matrix": [
        1.0,
        0.0,
        0.0,
        0.0,
        0.0,
        2.220446049250313e-16,
        -1.0,
        0.0,
        0.0,
        1.0,
        2.220446049250313e-16,
        0.0,
        0.0,
        0.0,
        0.0,
        1.0
      ],
      "name": "Sketchfab_model"
    },
    {
      "children": [
        2
      ],
      "matrix": [
        1.0,
        0.0,
        0.0,
        0.0,
        0.0,
        0.0,
        1.0,
        0.0,
        0.0,
        -1.0,
        0.0,
        0.0,
        0.0,
        0.0,
        0.0,
        1.0
      ],
      "name": "daa1310295fa4322bcb243c45e79e396.fbx"
    },
    {
      "children": [
        3,
        7,
        10
      ],
      "name": "RootNode"
    },
    {
      "children": [
        4,
        5,
        6
      ],
      "matrix": [
        0.8707064390182495,
        0.0,
        0.0,
        0.0,
        -0.0,
        -7.092804229784772e-08,
        -0.435353219509119,
        0.0,
        0.0,
        0.435353219509119,
        -7.092804229784772e-08,
        0.0,
        -43.49922180175781,
        -0.1916171759366989,
        -0.3160375952720642,
        1.0
      ],
      "name": "Almirah"
    },
    {
      "mesh": 0,
      "name": "Almirah_BrownPaint_0"
    },
    {
      "mesh": 1,
      "name": "Almirah_MetalicMat_0"
    },
    {
      "mesh": 2,
      "name": "Almirah_MarbleMat_0"
    },
    {
      "children": [
        8,
        9
      ],
      "matrix": [
        0.43535321950912476,
        0.0,
        0.0,
        0.0,
        -0.0,
        -7.092804229784772e-08,
        -0.435353219509119,
        0.0,
        0.0,
        0.870706439018238,
        -1.4185608459569544e-07,
        0.0,
        -43.49922180175781,
        -0.4055609107017517,
        -0.685319721698761,
        1.0
      ],
      "name": "LeftGate"
    },
    {
      "mesh": 3,
      "name": "LeftGate_WoodMat_0"
    },
    {
      "mesh": 4,
      "name": "LeftGate_MetalicMat_0"
    },
    {
      "children": [
        11,
        12
      ],
      "matrix": [
        0.43535321950912476,
        0.0,
        0.0,
        0.0,
        0.0,
        -7.092804229784772e-08,
        -0.435353219509119,
        0.0,
        0.0,
        0.870706439018238,
        -1.4185608459569544e-07,
        0.0,
        43.57142639160156,
        -0.4208947718143463,
        -0.6777681112289429,
        1.0
      ],
      "name": "RightGate"
    },
    {
      "mesh": 5,
      "name": "RightGate_WoodMat_0"
    },
    {
      "mesh": 6,
      "name": "RightGate_MetalicMat_0"
    }
  ],
  "samplers": [
    {
      "magFilter": 9729,
      "minFilter": 9987,
      "wrapS": 10497,
      "wrapT": 10497
    }
  ],
  "scene": 0,
  "scenes": [
    {
      "name": "Sketchfab_Scene",
      "nodes": [
        0
      ]
    }
  ],
  "textures": [
    {
      "sampler": 0,
      "source": 0
    },
    {
      "sampler": 0,
      "source": 1
    }
  ]
}
