{
  "accessors": [
    {
      "bufferView": 2,
      "componentType": 5126,
      "count": 1948,
      "max": [
        1.0,
        0.8531950116157532,
        0.3880769908428192
      ],
      "min": [
        -1.0,
        -0.8531950116157532,
        -0.3880769908428192
      ],
      "type": "VEC3"
    },
    {
      "bufferView": 2,
      "byteOffset": 23376,
      "componentType": 5126,
      "count": 1948,
      "max": [
        0.9960183501243591,
        0.9836229085922241,
        0.9995070099830627
      ],
      "min": [
        -0.9960183501243591,
        -0.9999218583106995,
        -0.9998955726623535
      ],
      "type": "VEC3"
    },
    {
      "bufferView": 3,
      "componentType": 5126,
      "count": 1948,
      "max": [
        0.9994184374809265,
        0.999932587146759,
        0.9977074265480042,
        1.0
      ],
      "min": [
        -0.9998558163642883,
        -0.9918181896209717,
        -0.9988058805465698,
        1.0
      ],
      "type": "VEC4"
    },
    {
      "bufferView": 1,
      "componentType": 5126,
      "count": 1948,
      "max": [
        0.9980080127716064,
        0.9379249811172485
      ],
      "min": [
        0.0019920000340789557,
        0.0018720000516623259
      ],
      "type": "VEC2"
    },
    {
      "bufferView": 0,
      "componentType": 5125,
      "count": 10656,
      "type": "SCALAR"
    }
  ],
  "asset": {
    "extras": {
      "author": "KotaBearHix (https://sketchfab.com/KotaBearHix)",
      "license": "CC-BY-4.0 (http://creativecommons.org/licenses/by/4.0/)",
      "source": "https://sketchfab.com/3d-models/worn-t-shirt-d1f9599ae1c04af88d17181c5ce3801e",
      "title": "Worn T-Shirt"
    },
    "generator": "Sketchfab-12.67.0",
    "version": "2.0"
  },
  "bufferViews": [
    {
      "buffer": 0,
      "byteLength": 42624,
      "name": "floatBufferViews",
      "target": 34963
    },
    {
      "buffer": 0,
      "byteLength": 15584,
      "byteOffset": 42624,
      "byteStride": 8,
      "name": "floatBufferViews",
      "target": 34962
    },
    {
      "buffer": 0,
      "byteLength": 46752,
      "byteOffset": 58208,
      "byteStride": 12,
      "name": "floatBufferViews",
      "target": 34962
    },
    {
      "buffer": 0,
      "byteLength": 31168,
      "byteOffset": 104960,
      "byteStride": 16,
      "name": "floatBufferViews",
      "target": 34962
    }
  ],
  "buffers": [
    {
      "byteLength": 136128,
      "uri": "scene.bin"
    }
  ],
  "images": [
    {
      "uri": "textures/TShirtLV3_blinn2SG_baseColor.jpeg"
    },
    {
      "uri": "textures/TShirtLV3_blinn2SG_metallicRoughness.png"
    },
    {
      "uri": "textures/TShirtLV3_blinn2SG_normal.png"
    }
  ],
  "materials": [
    {
      "doubleSided": true,
      "name": "TShirtLV3_blinn2SG",
      "normalTexture": {
        "index": 2
      },
      "occlusionTexture": {
        "index": 1
      },
      "pbrMetallicRoughness": {
        "baseColorTexture": {
          "index": 0
        },
        "metallicRoughnessTexture": {
          "index": 1
        }
      }
    }
  ],
  "meshes": [
    {
      "name": "defaultMaterial",
      "primitives": [
        {
          "attributes": {
            "NORMAL": 1,
            "POSITION": 0,
            "TANGENT": 2,
            "TEXCOORD_0": 3
          },
          "indices": 4,
          "material": 0,
          "mode": 4
        }
      ]
    }
  ],
  "nodes": [
    {
      "children": [
        1
      ],
      "matrix": [
        1.0,
        0.0,
        0.0,
        0.0,
        0.0,
        2.220446049250313e-16,
        -1.0,
        0.0,
        0.0,
        1.0,
        2.220446049250313e-16,
        0.0,
        0.0,
        0.0,
        0.0,
        1.0
      ],
      "name": "Sketchfab_model"
    },
    {
      "children": [
        2
      ],
      "matrix": [
        1.0,
        0.0,
        0.0,
        0.0,
        0.0,
        -4.371139006309477e-08,
        0.999999999999999,
        0.0,
        0.0,
        -0.999999999999999,
        -4.371139006309477e-08,
        0.0,
        0.0,
        0.0,
        0.0,
        1.0
      ],
      "name": "Collada visual scene group"
    },
    {
      "children": [
        3
      ],
      "name": "g"
    },
    {
      "mesh": 0,
      "name": "defaultMaterial"
    }
  ],
  "samplers": [
    {
      "magFilter": 9729,
      "minFilter": 9987,
      "wrapS": 10497,
      "wrapT": 10497
    }
  ],
  "scene": 0,
  "scenes": [
    {
      "name": "Sketchfab_Scene",
      "nodes": [
        0
      ]
    }
  ],
  "textures": [
    {
      "sampler": 0,
      "source": 0
    },
    {
      "sampler": 0,
      "source": 1
    },
    {
      "sampler": 0,
      "source": 2
    }
  ]
}
