{
  "accessors": [
    {
      "bufferView": 2,
      "componentType": 5126,
      "count": 65532,
      "max": [
        35.683082580566406,
        33.48594284057617,
        18.111286163330078
      ],
      "min": [
        -36.39525604248047,
        -33.1982307434082,
        -14.422094345092773
      ],
      "type": "VEC3"
    },
    {
      "bufferView": 2,
      "byteOffset": 786384,
      "componentType": 5126,
      "count": 65532,
      "max": [
        0.9999426603317261,
        0.9998413920402527,
        0.9999996423721313
      ],
      "min": [
        -0.9999945163726807,
        -0.9810271859169006,
        -0.9999999403953552
      ],
      "type": "VEC3"
    },
    {
      "bufferView": 3,
      "componentType": 5126,
      "count": 65532,
      "max": [
        0.9999995827674866,
        0.9998633861541748,
        0.9999873042106628,
        1.0
      ],
      "min": [
        -0.9998096823692322,
        -0.9996565580368042,
        -0.9998496770858765,
        -1.0
      ],
      "type": "VEC4"
    },
    {
      "bufferView": 1,
      "componentType": 5126,
      "count": 65532,
      "max": [
        0.9198628067970276,
        0.9957696795463562
      ],
      "min": [
        0.00017166139150504023,
        0.010602816939353943
      ],
      "type": "VEC2"
    },
    {
      "bufferView": 0,
      "componentType": 5125,
      "count": 322242,
      "type": "SCALAR"
    },
    {
      "bufferView": 2,
      "byteOffset": 1572768,
      "componentType": 5126,
      "count": 65532,
      "max": [
        34.911739349365234,
        33.56157302856445,
        18.192604064941406
      ],
      "min": [
        -35.299049377441406,
        -33.487220764160156,
        -14.422094345092773
      ],
      "type": "VEC3"
    },
    {
      "bufferView": 2,
      "byteOffset": 2359152,
      "componentType": 5126,
      "count": 65532,
      "max": [
        0.9999722242355347,
        0.9958161115646362,
        0.9999974370002747
      ],
      "min": [
        -0.9999935030937195,
        -0.9649820923805237,
        -0.9999958872795105
      ],
      "type": "VEC3"
    },
    {
      "bufferView": 3,
      "byteOffset": 1048512,
      "componentType": 5126,
      "count": 65532,
      "max": [
        0.9999955296516418,
        0.9999852776527405,
        0.9999977350234985,
        1.0
      ],
      "min": [
        -0.9998995065689087,
        -0.99993497133255,
        -0.999940812587738,
        -1.0
      ],
      "type": "VEC4"
    },
    {
      "bufferView": 1,
      "byteOffset": 524256,
      "componentType": 5126,
      "count": 65532,
      "max": [
        0.9198628067970276,
        0.9998284578323364
      ],
      "min": [
        0.002600908512249589,
        0.000171661376953125
      ],
      "type": "VEC2"
    },
    {
      "bufferView": 0,
      "byteOffset": 1288968,
      "componentType": 5125,
      "count": 303261,
      "type": "SCALAR"
    },
    {
      "bufferView": 2,
      "byteOffset": 3145536,
      "componentType": 5126,
      "count": 212,
      "max": [
        15.296354293823242,
        3.8755545616149902,
        -1.5737305879592896
      ],
      "min": [
        -19.963537216186523,
        -14.076454162597656,
        -12.99681282043457
      ],
      "type": "VEC3"
    },
    {
      "bufferView": 2,
      "byteOffset": 3148080,
      "componentType": 5126,
      "count": 212,
      "max": [
        0.6983816623687744,
        -0.26327213644981384,
        -0.2020817995071411
      ],
      "min": [
        -0.7417432069778442,
        -0.9026190042495728,
        -0.848284900188446
      ],
      "type": "VEC3"
    },
    {
      "bufferView": 3,
      "byteOffset": 2097024,
      "componentType": 5126,
      "count": 212,
      "max": [
        0.8588947653770447,
        -0.14151720702648163,
        0.7513969540596008,
        1.0
      ],
      "min": [
        0.17777281999588013,
        -0.9535149931907654,
        0.08219297975301743,
        1.0
      ],
      "type": "VEC4"
    },
    {
      "bufferView": 1,
      "byteOffset": 1048512,
      "componentType": 5126,
      "count": 212,
      "max": [
        0.32482096552848816,
        0.4529767334461212
      ],
      "min": [
        0.14745062589645386,
        0.2683890163898468
      ],
      "type": "VEC2"
    },
    {
      "bufferView": 0,
      "byteOffset": 2502012,
      "componentType": 5125,
      "count": 873,
      "type": "SCALAR"
    }
  ],
  "asset": {
    "extras": {
      "author": "Carlos.Maciel (https://sketchfab.com/Carlos.Maciel)",
      "license": "CC-BY-4.0 (http://creativecommons.org/licenses/by/4.0/)",
      "source": "https://sketchfab.com/3d-models/t-shirt-a5c178713aae4cb6b19a3653a31b9fbb",
      "title": "T-shirt"
    },
    "generator": "Sketchfab-13.23.0",
    "version": "2.0"
  },
  "bufferViews": [
    {
      "buffer": 0,
      "byteLength": 2505504,
      "name": "floatBufferViews",
      "target": 34963
    },
    {
      "buffer": 0,
      "byteLength": 1050208,
      "byteOffset": 2505504,
      "byteStride": 8,
      "name": "floatBufferViews",
      "target": 34962
    },
    {
      "buffer": 0,
      "byteLength": 3150624,
      "byteOffset": 3555712,
      "byteStride": 12,
      "name": "floatBufferViews",
      "target": 34962
    },
    {
      "buffer": 0,
      "byteLength": 2100416,
      "byteOffset": 6706336,
      "byteStride": 16,
      "name": "floatBufferViews",
      "target": 34962
    }
  ],
  "buffers": [
    {
      "byteLength": 8806752,
      "uri": "scene.bin"
    }
  ],
  "extensionsUsed": [
    "KHR_texture_transform"
  ],
  "images": [
    {
      "uri": "textures/Piel_baseColor.png"
    },
    {
      "uri": "textures/Piel_normal.png"
    }
  ],
  "materials": [
    {
      "doubleSided": true,
      "name": "Piel",
      "normalTexture": {
        "extensions": {
          "KHR_texture_transform": {
            "scale": [
              6.9999999999999964,
              6.9999999999999964
            ]
          }
        },
        "index": 1
      },
      "pbrMetallicRoughness": {
        "baseColorFactor": [
          0.45478605282210716,
          0.45478605282210716,
          0.45478605282210716,
          1.0
        ],
        "baseColorTexture": {
          "index": 0
        },
        "metallicFactor": 0.0,
        "roughnessFactor": 0.8567578083390222
      }
    }
  ],
  "meshes": [
    {
      "name": "R_Piel_0",
      "primitives": [
        {
          "attributes": {
            "NORMAL": 1,
            "POSITION": 0,
            "TANGENT": 2,
            "TEXCOORD_0": 3
          },
          "indices": 4,
          "material": 0,
          "mode": 4
        }
      ]
    },
    {
      "name": "R_Piel_0",
      "primitives": [
        {
          "attributes": {
            "NORMAL": 6,
            "POSITION": 5,
            "TANGENT": 7,
            "TEXCOORD_0": 8
          },
          "indices": 9,
          "material": 0,
          "mode": 4
        }
      ]
    },
    {
      "name": "R_Piel_0",
      "primitives": [
        {
          "attributes": {
            "NORMAL": 11,
            "POSITION": 10,
            "TANGENT": 12,
            "TEXCOORD_0": 13
          },
          "indices": 14,
          "material": 0,
          "mode": 4
        }
      ]
    }
  ],
  "nodes": [
    {
      "children": [
        1
      ],
      "matrix": [
        1.0,
        0.0,
        0.0,
        0.0,
        0.0,
        2.220446049250313e-16,
        -1.0,
        0.0,
        0.0,
        1.0,
        2.220446049250313e-16,
        0.0,
        0.0,
        0.0,
        0.0,
        1.0
      ],
      "name": "Sketchfab_model"
    },
    {
      "children": [
        2
      ],
      "matrix": [
        0.009999999776482582,
        0.0,
        0.0,
        0.0,
        0.0,
        0.0,
        0.009999999776482582,
        0.0,
        0.0,
        -0.009999999776482582,
        0.0,
        0.0,
        0.0,
        0.0,
        0.0,
        1.0
      ],
      "name": "a80c1e88991340169eade458606ef1f9.fbx"
    },
    {
      "children": [
        3,
        6,
        8
      ],
      "name": "RootNode"
    },
    {
      "children": [
        4
      ],
      "matrix": [
        -29.08647719990347,
        -5.518906457566863,
        -95.51711910171437,
        0.0,
        56.63930913109449,
        79.46723428563203,
        -21.83912397841966,
        0.0,
        77.11008775993375,
        -60.45246356562044,
        -19.98834696773717,
        0.0,
        407.6245422363281,
        590.38623046875,
        -100.54539489746094,
        1.0
      ],
      "name": "Light"
    },
    {
      "children": [
        5
      ],
      "matrix": [
        1.0,
        0.0,
        0.0,
        0.0,
        0.0,
        2.220446049250313e-16,
        1.0,
        0.0,
        0.0,
        -1.0,
        2.220446049250313e-16,
        0.0,
        0.0,
        0.0,
        0.0,
        1.0
      ],
      "name": "Object_4"
    },
    {
      "name": "Object_5"
    },
    {
      "children": [
        7
      ],
      "matrix": [
        -65.15581009765468,
        -44.527143038140764,
        -61.41704928909654,
        0.0,
        -32.40135466989878,
        89.5395708958271,
        -30.542085476036902,
        0.0,
        68.59207001076176,
        1.2755314797120858e-05,
        -72.76761921184276,
        0.0,
        735.88916015625,
        495.8309326171875,
        692.5791015625,
        1.0
      ],
      "name": "Camera"
    },
    {
      "name": "Object_7"
    },
    {
      "children": [
        9,
        10,
        11
      ],
      "matrix": [
        6.0071492195129395,
        0.0,
        0.0,
        0.0,
        0.0,
        6.0071492195128595,
        9.786888653975306e-07,
        0.0,
        0.0,
        -9.786888653975306e-07,
        6.0071492195128595,
        0.0,
        63.06915283203125,
        226.817138671875,
        10.473762512207031,
        1.0
      ],
      "name": "R"
    },
    {
      "mesh": 0,
      "name": "R_Piel_0"
    },
    {
      "mesh": 1,
      "name": "R_Piel_0"
    },
    {
      "mesh": 2,
      "name": "R_Piel_0"
    }
  ],
  "samplers": [
    {
      "magFilter": 9729,
      "minFilter": 9987,
      "wrapS": 10497,
      "wrapT": 10497
    }
  ],
  "scene": 0,
  "scenes": [
    {
      "name": "Sketchfab_Scene",
      "nodes": [
        0
      ]
    }
  ],
  "textures": [
    {
      "sampler": 0,
      "source": 0
    },
    {
      "sampler": 0,
      "source": 1
    }
  ]
}
