{
  "accessors": [
    {
      "bufferView": 2,
      "componentType": 5126,
      "count": 104,
      "max": [
        144.00961303710938,
        12.570189476013184,
        1455.827392578125
      ],
      "min": [
        38.480079650878906,
        -56.5069465637207,
        1359.4915771484375
      ],
      "type": "VEC3"
    },
    {
      "bufferView": 2,
      "byteOffset": 1248,
      "componentType": 5126,
      "count": 104,
      "max": [
        0.6896936297416687,
        -0.7067346572875977,
        0.5247119069099426
      ],
      "min": [
        -0.006102997809648514,
        -0.9366476535797119,
        0.09147700667381287
      ],
      "type": "VEC3"
    },
    {
      "bufferView": 1,
      "componentType": 5126,
      "count": 104,
      "max": [
        1.0,
        1.0
      ],
      "min": [
        0.0,
        0.0
      ],
      "type": "VEC2"
    },
    {
      "bufferView": 0,
      "componentType": 5125,
      "count": 453,
      "type": "SCALAR"
    },
    {
      "bufferView": 2,
      "byteOffset": 2496,
      "componentType": 5126,
      "count": 66,
      "max": [
        143.93858337402344,
        -1.4807169437408447,
        1398.8367919921875
      ],
      "min": [
        50.384735107421875,
        -77.98471069335938,
        1296.6693115234375
      ],
      "type": "VEC3"
    },
    {
      "bufferView": 2,
      "byteOffset": 3288,
      "componentType": 5126,
      "count": 66,
      "max": [
        0.9515246152877808,
        -0.3012869358062744,
        0.49526622891426086
      ],
      "min": [
        -0.4863088130950928,
        -0.9967814683914185,
        -0.20322290062904358
      ],
      "type": "VEC3"
    },
    {
      "bufferView": 1,
      "byteOffset": 832,
      "componentType": 5126,
      "count": 66,
      "max": [
        200.73631286621094,
        1389.7677001953125
      ],
      "min": [
        80.20547485351563,
        1275.9256591796875
      ],
      "type": "VEC2"
    },
    {
      "bufferView": 0,
      "byteOffset": 1812,
      "componentType": 5125,
      "count": 312,
      "type": "SCALAR"
    },
    {
      "bufferView": 2,
      "byteOffset": 4080,
      "componentType": 5126,
      "count": 7089,
      "max": [
        293.3799743652344,
        244.68698120117188,
        1167.5482177734375
      ],
      "min": [
        -246.2050018310547,
        -168.06845092773438,
        510.6217041015625
      ],
      "type": "VEC3"
    },
    {
      "bufferView": 2,
      "byteOffset": 89148,
      "componentType": 5126,
      "count": 7089,
      "max": [
        0.9999027848243713,
        0.9999479055404663,
        0.6764256954193115
      ],
      "min": [
        -0.9999949932098389,
        -0.9999894499778748,
        -0.7460659742355347
      ],
      "type": "VEC3"
    },
    {
      "bufferView": 3,
      "componentType": 5126,
      "count": 7089,
      "max": [
        0.9999712705612183,
        0.9989725947380066,
        0.9997630715370178,
        1.0
      ],
      "min": [
        -0.9997931718826294,
        -0.9993707537651062,
        -0.9992572069168091,
        1.0
      ],
      "type": "VEC4"
    },
    {
      "bufferView": 1,
      "byteOffset": 1360,
      "componentType": 5126,
      "count": 7089,
      "max": [
        2.3366870880126953,
        2.3366799354553223
      ],
      "min": [
        -2.3366849422454834,
        -2.336678981781006
      ],
      "type": "VEC2"
    },
    {
      "bufferView": 0,
      "byteOffset": 3060,
      "componentType": 5125,
      "count": 41151,
      "type": "SCALAR"
    },
    {
      "bufferView": 2,
      "byteOffset": 174216,
      "componentType": 5126,
      "count": 2877,
      "max": [
        266.5413513183594,
        171.63270568847656,
        1508.762451171875
      ],
      "min": [
        -225.92210388183594,
        -92.02953338623047,
        932.2615356445313
      ],
      "type": "VEC3"
    },
    {
      "bufferView": 2,
      "byteOffset": 208740,
      "componentType": 5126,
      "count": 2877,
      "max": [
        0.9994661211967468,
        0.9999440908432007,
        0.9900227785110474
      ],
      "min": [
        -0.9992151260375977,
        -0.9999853372573853,
        -0.9858059883117676
      ],
      "type": "VEC3"
    },
    {
      "bufferView": 3,
      "byteOffset": 113424,
      "componentType": 5126,
      "count": 2877,
      "max": [
        0.9999960660934448,
        0.9998390078544617,
        0.9572069644927979,
        1.0
      ],
      "min": [
        -0.9999536871910095,
        -0.9993873238563538,
        -0.960601270198822,
        -1.0
      ],
      "type": "VEC4"
    },
    {
      "bufferView": 1,
      "byteOffset": 58072,
      "componentType": 5126,
      "count": 2877,
      "max": [
        170.0341796875,
        311.75146484375
      ],
      "min": [
        -170.0341796875,
        -311.75140380859375
      ],
      "type": "VEC2"
    },
    {
      "bufferView": 0,
      "byteOffset": 167664,
      "componentType": 5125,
      "count": 15660,
      "type": "SCALAR"
    }
  ],
  "asset": {
    "extras": {
      "author": "Virtual Pandora (https://sketchfab.com/virtualpandora)",
      "license": "CC-BY-4.0 (http://creativecommons.org/licenses/by/4.0/)",
      "source": "https://sketchfab.com/3d-models/skirt-and-t-shirt-e0ea80504d914211a96a8c36a4e1a4db",
      "title": "Skirt and t-shirt"
    },
    "generator": "Sketchfab-12.68.0",
    "version": "2.0"
  },
  "bufferViews": [
    {
      "buffer": 0,
      "byteLength": 230304,
      "name": "floatBufferViews",
      "target": 34963
    },
    {
      "buffer": 0,
      "byteLength": 81088,
      "byteOffset": 230304,
      "byteStride": 8,
      "name": "floatBufferViews",
      "target": 34962
    },
    {
      "buffer": 0,
      "byteLength": 243264,
      "byteOffset": 311392,
      "byteStride": 12,
      "name": "floatBufferViews",
      "target": 34962
    },
    {
      "buffer": 0,
      "byteLength": 159456,
      "byteOffset": 554656,
      "byteStride": 16,
      "name": "floatBufferViews",
      "target": 34962
    }
  ],
  "buffers": [
    {
      "byteLength": 714112,
      "uri": "scene.bin"
    }
  ],
  "images": [
    {
      "uri": "textures/PT_FABRIC_FRONT_12672_baseColor.png"
    },
    {
      "uri": "textures/skirt_FRONT_4383_baseColor.png"
    },
    {
      "uri": "textures/skirt_FRONT_4383_normal.png"
    },
    {
      "uri": "textures/t-shirt_FRONT_4377_normal.png"
    }
  ],
  "materials": [
    {
      "alphaCutoff": 0.025909100156841856,
      "alphaMode": "MASK",
      "doubleSided": true,
      "name": "PT_FABRIC_FRONT_12672",
      "pbrMetallicRoughness": {
        "baseColorFactor": [
          0.9531818274295691,
          0.9531818274295691,
          0.9531818274295691,
          1.0
        ],
        "baseColorTexture": {
          "index": 0
        },
        "metallicFactor": 0.0,
        "roughnessFactor": 0.9827475502465659
      }
    },
    {
      "doubleSided": true,
      "name": "pocket_FRONT_4391",
      "pbrMetallicRoughness": {
        "baseColorFactor": [
          0.0,
          0.0,
          0.0,
          1.0
        ],
        "metallicFactor": 0.0,
        "roughnessFactor": 0.8385478882712868
      }
    },
    {
      "doubleSided": true,
      "name": "skirt_FRONT_4383",
      "normalTexture": {
        "index": 2
      },
      "pbrMetallicRoughness": {
        "baseColorTexture": {
          "index": 1
        },
        "metallicFactor": 0.0,
        "roughnessFactor": 0.8621141776686232
      }
    },
    {
      "doubleSided": true,
      "name": "t-shirt_FRONT_4377",
      "normalTexture": {
        "index": 3
      },
      "pbrMetallicRoughness": {
        "baseColorFactor": [
          0.0,
          0.0,
          0.0,
          1.0
        ],
        "metallicFactor": 0.0,
        "roughnessFactor": 0.9827475502465659
      }
    }
  ],
  "meshes": [
    {
      "name": "Object_0",
      "primitives": [
        {
          "attributes": {
            "NORMAL": 1,
            "POSITION": 0,
            "TEXCOORD_0": 2
          },
          "indices": 3,
          "material": 0,
          "mode": 4
        }
      ]
    },
    {
      "name": "Object_1",
      "primitives": [
        {
          "attributes": {
            "NORMAL": 5,
            "POSITION": 4,
            "TEXCOORD_0": 6
          },
          "indices": 7,
          "material": 1,
          "mode": 4
        }
      ]
    },
    {
      "name": "Object_2",
      "primitives": [
        {
          "attributes": {
            "NORMAL": 9,
            "POSITION": 8,
            "TANGENT": 10,
            "TEXCOORD_0": 11
          },
          "indices": 12,
          "material": 2,
          "mode": 4
        }
      ]
    },
    {
      "name": "Object_3",
      "primitives": [
        {
          "attributes": {
            "NORMAL": 14,
            "POSITION": 13,
            "TANGENT": 15,
            "TEXCOORD_0": 16
          },
          "indices": 17,
          "material": 3,
          "mode": 4
        }
      ]
    }
  ],
  "nodes": [
    {
      "children": [
        1
      ],
      "matrix": [
        1.0,
        0.0,
        0.0,
        0.0,
        0.0,
        2.220446049250313e-16,
        -1.0,
        0.0,
        0.0,
        1.0,
        2.220446049250313e-16,
        0.0,
        0.0,
        0.0,
        0.0,
        1.0
      ],
      "name": "Sketchfab_model"
    },
    {
      "children": [
        2,
        3,
        4,
        5
      ],
      "name": "skirt+t-shirt.obj.cleaner.materialmerger.gles"
    },
    {
      "mesh": 0,
      "name": "Object_2"
    },
    {
      "mesh": 1,
      "name": "Object_3"
    },
    {
      "mesh": 2,
      "name": "Object_4"
    },
    {
      "mesh": 3,
      "name": "Object_5"
    }
  ],
  "samplers": [
    {
      "magFilter": 9729,
      "minFilter": 9987,
      "wrapS": 33071,
      "wrapT": 33071
    },
    {
      "magFilter": 9729,
      "minFilter": 9987,
      "wrapS": 10497,
      "wrapT": 10497
    }
  ],
  "scene": 0,
  "scenes": [
    {
      "name": "Sketchfab_Scene",
      "nodes": [
        0
      ]
    }
  ],
  "textures": [
    {
      "sampler": 0,
      "source": 0
    },
    {
      "sampler": 1,
      "source": 1
    },
    {
      "sampler": 1,
      "source": 2
    },
    {
      "sampler": 1,
      "source": 3
    }
  ]
}
